<mxfile>
    <diagram id="K40r-FNvWT1uYDXDN9jT" name="J2 Silence Auction ">
        <mxGraphModel dx="1094" dy="840" grid="1" gridSize="10" guides="1" tooltips="1" connect="1" arrows="1" fold="1" page="1" pageScale="1" pageWidth="850" pageHeight="1100" math="0" shadow="0">
            <root>
                <mxCell id="0"/>
                <mxCell id="1" parent="0"/>
                <mxCell id="46" value="" style="edgeStyle=orthogonalEdgeStyle;rounded=0;orthogonalLoop=1;jettySize=auto;html=1;fontSize=15;strokeWidth=2;" edge="1" parent="1" source="4" target="44">
                    <mxGeometry relative="1" as="geometry"/>
                </mxCell>
                <mxCell id="4" value="&lt;font style=&quot;font-size: 15px;&quot;&gt;Start&lt;/font&gt;" style="rounded=1;whiteSpace=wrap;html=1;arcSize=50;fontSize=15;strokeWidth=2;" parent="1" vertex="1">
                    <mxGeometry x="267" y="72" width="120" height="60" as="geometry"/>
                </mxCell>
                <mxCell id="20" value="" style="edgeStyle=orthogonalEdgeStyle;rounded=0;orthogonalLoop=1;jettySize=auto;html=1;fontSize=15;strokeWidth=2;" parent="1" source="10" edge="1">
                    <mxGeometry relative="1" as="geometry">
                        <mxPoint x="327" y="630" as="targetPoint"/>
                    </mxGeometry>
                </mxCell>
                <mxCell id="24" value="" style="edgeStyle=orthogonalEdgeStyle;rounded=0;orthogonalLoop=1;jettySize=auto;html=1;fontSize=15;strokeWidth=2;" parent="1" source="10" target="23" edge="1">
                    <mxGeometry relative="1" as="geometry"/>
                </mxCell>
                <mxCell id="10" value="&lt;span style=&quot;font-size: 15px;&quot;&gt;for (i = 0; i &amp;lt; n; i++)&lt;/span&gt;" style="rhombus;whiteSpace=wrap;html=1;fontSize=15;strokeWidth=2;" parent="1" vertex="1">
                    <mxGeometry x="232" y="511" width="190" height="80" as="geometry"/>
                </mxCell>
                <mxCell id="33" value="" style="edgeStyle=orthogonalEdgeStyle;rounded=0;orthogonalLoop=1;jettySize=auto;html=1;fontSize=15;strokeWidth=2;" edge="1" parent="1" target="29">
                    <mxGeometry relative="1" as="geometry">
                        <mxPoint x="327" y="690" as="sourcePoint"/>
                    </mxGeometry>
                </mxCell>
                <mxCell id="15" value="&lt;font style=&quot;font-size: 15px;&quot;&gt;Yes&lt;/font&gt;" style="text;html=1;align=center;verticalAlign=middle;whiteSpace=wrap;rounded=0;fontSize=15;strokeWidth=2;" parent="1" vertex="1">
                    <mxGeometry x="347" y="591" width="40" height="20" as="geometry"/>
                </mxCell>
                <mxCell id="17" value="&lt;span style=&quot;font-size: 15px;&quot;&gt;Input n&lt;/span&gt;" style="shape=parallelogram;perimeter=parallelogramPerimeter;whiteSpace=wrap;html=1;fixedSize=1;fontSize=15;strokeWidth=2;" parent="1" vertex="1">
                    <mxGeometry x="267" y="258" width="120" height="60" as="geometry"/>
                </mxCell>
                <mxCell id="27" value="" style="edgeStyle=orthogonalEdgeStyle;rounded=0;orthogonalLoop=1;jettySize=auto;html=1;fontSize=15;strokeWidth=2;" parent="1" source="23" target="26" edge="1">
                    <mxGeometry relative="1" as="geometry"/>
                </mxCell>
                <mxCell id="23" value="&lt;span style=&quot;font-size: 15px;&quot;&gt;Output Winner Name&lt;/span&gt;" style="shape=parallelogram;perimeter=parallelogramPerimeter;whiteSpace=wrap;html=1;fixedSize=1;fontSize=15;strokeWidth=2;" parent="1" vertex="1">
                    <mxGeometry x="512" y="521" width="220" height="60" as="geometry"/>
                </mxCell>
                <mxCell id="25" value="&lt;font style=&quot;font-size: 15px;&quot;&gt;No&lt;/font&gt;" style="text;html=1;align=center;verticalAlign=middle;whiteSpace=wrap;rounded=0;fontSize=15;strokeWidth=2;" parent="1" vertex="1">
                    <mxGeometry x="442" y="520" width="40" height="20" as="geometry"/>
                </mxCell>
                <mxCell id="26" value="&lt;font style=&quot;font-size: 15px;&quot;&gt;End&lt;/font&gt;" style="rounded=1;whiteSpace=wrap;html=1;arcSize=50;fontSize=15;strokeWidth=2;" parent="1" vertex="1">
                    <mxGeometry x="562" y="640" width="120" height="60" as="geometry"/>
                </mxCell>
                <mxCell id="38" value="" style="edgeStyle=orthogonalEdgeStyle;rounded=0;orthogonalLoop=1;jettySize=auto;html=1;fontSize=15;strokeWidth=2;" edge="1" parent="1" source="29" target="37">
                    <mxGeometry relative="1" as="geometry"/>
                </mxCell>
                <mxCell id="29" value="&lt;font color=&quot;#ffffff&quot; style=&quot;font-size: 15px;&quot;&gt;if (bid &amp;gt; max_bid)&lt;/font&gt;" style="rhombus;whiteSpace=wrap;html=1;fontSize=15;strokeWidth=2;" vertex="1" parent="1">
                    <mxGeometry x="218.5" y="729" width="222.5" height="80" as="geometry"/>
                </mxCell>
                <mxCell id="36" value="&lt;span style=&quot;color: rgb(248, 248, 242); font-size: 15px;&quot;&gt;cin &amp;gt;&amp;gt; name &amp;gt;&amp;gt; bid;&lt;/span&gt;" style="shape=parallelogram;perimeter=parallelogramPerimeter;whiteSpace=wrap;html=1;fixedSize=1;fontSize=15;strokeWidth=2;" vertex="1" parent="1">
                    <mxGeometry x="221" y="630" width="220" height="60" as="geometry"/>
                </mxCell>
                <mxCell id="37" value="&lt;font style=&quot;font-size: 15px;&quot;&gt;max_bid = bid;&lt;br style=&quot;font-size: 15px;&quot;&gt;winner = name;&lt;/font&gt;" style="rounded=0;whiteSpace=wrap;html=1;fontSize=15;strokeWidth=2;" vertex="1" parent="1">
                    <mxGeometry x="311" y="860" width="201" height="60" as="geometry"/>
                </mxCell>
                <mxCell id="39" value="&lt;font style=&quot;font-size: 15px;&quot;&gt;Yes&lt;/font&gt;" style="text;html=1;align=center;verticalAlign=middle;whiteSpace=wrap;rounded=0;fontSize=15;strokeWidth=2;" vertex="1" parent="1">
                    <mxGeometry x="271" y="830" width="40" height="20" as="geometry"/>
                </mxCell>
                <mxCell id="42" value="" style="endArrow=classic;startArrow=classic;html=1;exitX=0;exitY=0.5;exitDx=0;exitDy=0;entryX=0;entryY=0.5;entryDx=0;entryDy=0;fontSize=15;strokeWidth=2;" edge="1" parent="1" source="29" target="10">
                    <mxGeometry width="50" height="50" relative="1" as="geometry">
                        <mxPoint x="492" y="700" as="sourcePoint"/>
                        <mxPoint x="122" y="470" as="targetPoint"/>
                        <Array as="points">
                            <mxPoint x="122" y="769"/>
                            <mxPoint x="212" y="550"/>
                        </Array>
                    </mxGeometry>
                </mxCell>
                <mxCell id="45" value="" style="edgeStyle=orthogonalEdgeStyle;rounded=0;orthogonalLoop=1;jettySize=auto;html=1;fontSize=15;strokeWidth=2;" edge="1" parent="1" source="44" target="17">
                    <mxGeometry relative="1" as="geometry"/>
                </mxCell>
                <mxCell id="44" value="Declare int n" style="rounded=0;whiteSpace=wrap;html=1;fontStyle=0;fontSize=15;strokeWidth=2;" vertex="1" parent="1">
                    <mxGeometry x="267" y="163" width="120" height="60" as="geometry"/>
                </mxCell>
                <mxCell id="47" value="Declare int bid, max_bid = 0" style="rounded=0;whiteSpace=wrap;html=1;fontStyle=0;fontSize=15;strokeWidth=2;" vertex="1" parent="1">
                    <mxGeometry x="267" y="348" width="120" height="60" as="geometry"/>
                </mxCell>
                <mxCell id="48" value="" style="edgeStyle=orthogonalEdgeStyle;rounded=0;orthogonalLoop=1;jettySize=auto;html=1;fontSize=15;strokeWidth=2;" edge="1" parent="1" source="17" target="47">
                    <mxGeometry relative="1" as="geometry">
                        <mxPoint x="327" y="379" as="sourcePoint"/>
                        <mxPoint x="327" y="511" as="targetPoint"/>
                    </mxGeometry>
                </mxCell>
                <mxCell id="49" value="Declare string winner, name" style="rounded=0;whiteSpace=wrap;html=1;fontStyle=1;fontSize=15;strokeWidth=2;" vertex="1" parent="1">
                    <mxGeometry x="269" y="427" width="120" height="60" as="geometry"/>
                </mxCell>
                <mxCell id="50" value="" style="endArrow=classic;html=1;exitX=0.5;exitY=1;exitDx=0;exitDy=0;fontSize=15;strokeWidth=2;" edge="1" parent="1" source="49">
                    <mxGeometry width="50" height="50" relative="1" as="geometry">
                        <mxPoint x="322" y="487" as="sourcePoint"/>
                        <mxPoint x="329" y="510" as="targetPoint"/>
                    </mxGeometry>
                </mxCell>
                <mxCell id="51" value="" style="endArrow=classic;html=1;fontSize=15;strokeWidth=2;" edge="1" parent="1" target="49">
                    <mxGeometry width="50" height="50" relative="1" as="geometry">
                        <mxPoint x="331" y="410" as="sourcePoint"/>
                        <mxPoint x="402" y="470" as="targetPoint"/>
                    </mxGeometry>
                </mxCell>
                <mxCell id="52" value="No" style="text;html=1;strokeColor=none;fillColor=none;align=center;verticalAlign=middle;whiteSpace=wrap;rounded=0;fontSize=20;" vertex="1" parent="1">
                    <mxGeometry x="117" y="654" width="40" height="20" as="geometry"/>
                </mxCell>
            </root>
        </mxGraphModel>
    </diagram>
</mxfile>